<svg width="572" height="529" viewBox="0 0 572 529" fill="none" xmlns="http://www.w3.org/2000/svg">
<path d="M355.673 501.988C354.171 518.611 345.914 527.615 330.899 529C323.893 529 317.762 526.507 312.507 521.52C307.502 516.256 305 509.746 305 501.988V305.012C305.25 297.254 307.878 290.882 312.882 285.896C317.887 280.632 323.893 278 330.899 278H349.292H395.46H488.173C489.674 278 491.176 278.139 492.677 278.416H494.929C512.446 278.97 526.834 283.402 538.095 291.714C549.356 300.025 557.488 309.583 562.493 320.387C567.498 330.915 570 341.581 570 352.386C570 363.467 567.498 374.411 562.493 385.215C557.738 395.743 549.606 405.162 538.095 413.474C526.834 421.785 512.446 426.217 494.929 426.772H428.867C430.869 440.624 434.998 450.874 441.254 457.523C447.259 464.172 454.891 467.497 464.15 467.497H545.227C552.233 467.774 557.989 470.683 562.493 476.224C567.247 481.764 569.625 488.413 569.625 496.171C569.374 503.651 566.872 510.023 562.118 515.286C557.613 520.273 551.983 522.905 545.227 523.182H457.394C438.876 523.459 422.11 515.425 407.096 499.079C392.082 482.734 382.949 463.341 379.695 440.901C375.191 415.967 372.939 401.976 372.939 398.929C372.939 391.172 375.316 384.661 380.071 379.397C385.076 373.857 391.081 371.086 398.088 371.086H497.181C501.936 370.809 505.814 369.701 508.817 367.762C512.07 365.545 514.448 363.19 515.949 360.697C517.45 357.927 518.201 355.156 518.201 352.386C518.201 349.615 517.45 346.983 515.949 344.49C514.448 341.72 512.07 339.365 508.817 337.425C505.814 335.209 501.936 333.962 497.181 333.685H395.46H365.432C358.926 333.962 355.673 337.564 355.673 344.49V501.988Z" fill="#FF9696"/>
<path d="M77.7004 278H239.538C246.697 278.284 252.577 281.262 257.179 286.934C262.037 292.606 264.466 299.413 264.466 307.354C263.188 324.371 254.878 333.589 239.538 335.007H90.7395C81.0241 335.574 72.9706 339.686 66.5789 347.344C60.1872 355.002 55.4573 363.794 52.3893 373.72C49.5769 383.363 48.1708 393.29 48.1708 403.5C48.1708 413.71 49.5769 423.779 52.3893 433.705C55.4573 443.348 60.1872 451.998 66.5789 459.656C72.9706 467.314 81.0241 471.426 90.7395 471.993H207.324C211.926 471.71 214.355 468.873 214.611 463.485V438.81C214.355 433.138 211.926 430.302 207.324 430.302H109.148C101.989 430.302 95.8529 427.607 90.7395 422.219C85.8818 416.546 83.453 409.74 83.453 401.798C83.453 393.857 85.8818 387.05 90.7395 381.378C95.8529 375.989 101.989 373.295 109.148 373.295H240.305C247.464 373.295 253.6 375.989 258.713 381.378C263.315 386.767 265.744 393.29 266 400.947V401.798V501.347C265.744 509.005 263.315 515.386 258.713 520.492C253.856 525.88 247.975 528.716 241.072 529H77.7004C59.8037 527.866 44.9749 520.35 33.2142 506.453C21.7091 492.272 13.3999 476.247 8.28654 458.38C3.42885 440.512 1 422.219 1 403.5C1 384.781 3.55668 366.488 8.67004 348.62C13.7834 330.753 22.0926 314.87 33.5977 300.973C45.1028 286.792 59.8037 279.134 77.7004 278Z" fill="#333333"/>
<path d="M490.167 7C509.262 8.08927 524.946 15.4418 537.221 29.0576C549.496 42.4011 558.361 57.6508 563.817 74.8068C569.272 91.9627 572 109.527 572 127.5C572 145.473 569.272 163.037 563.817 180.193C558.634 197.349 549.769 212.735 537.221 226.351C524.946 239.694 509.262 246.911 490.167 248H339.596C332.231 247.728 325.957 245.141 320.774 240.239C315.864 235.065 313.273 228.802 313 221.449V120.147C313.273 112.523 316.137 106.259 321.592 101.358C327.048 96.1836 333.595 93.5966 341.232 93.5966C348.597 93.8689 354.871 96.5921 360.054 101.766C365.236 106.668 367.964 112.795 368.237 120.147V182.236C368.237 189.588 372.056 193.264 379.694 193.264H476.256C486.621 192.72 495.214 188.771 502.033 181.419C508.853 174.066 513.762 165.76 516.763 156.502C520.036 146.971 521.673 137.303 521.673 127.5C521.673 117.697 520.036 108.166 516.763 98.9068C513.762 89.3757 508.853 80.9339 502.033 73.5814C495.214 66.2288 486.621 62.2802 476.256 61.7356H339.596C323.229 60.374 314.364 51.5237 313 35.1847C313 27.5599 315.455 21.0243 320.365 15.578C325.548 10.1316 331.958 7.27232 339.596 7H490.167Z" fill="#333333"/>
<path d="M129.796 257C115.646 257 101.633 255.366 87.7551 252.097C74.1497 248.828 61.0884 244.061 48.5714 237.796C36.0544 231.259 25.034 222.679 15.5102 212.056C5.98639 201.432 0.816326 188.766 0 174.057V156.897V150.768C0 143.141 2.72109 136.876 8.16327 131.973C13.8776 126.798 20.5442 124.21 28.1633 124.21C44.4898 125.572 53.3333 134.424 54.6939 150.768V161.391C55.2381 169.835 58.3673 176.917 64.0816 182.638C70.068 188.085 76.5986 192.444 83.6735 195.712C91.0204 198.981 98.5034 201.432 106.122 203.067C114.014 204.701 121.905 205.518 129.796 205.518C137.687 205.518 145.442 204.701 153.061 203.067C160.952 201.432 168.435 198.981 175.51 195.712C182.857 192.444 189.388 188.085 195.102 182.638C201.088 176.917 204.354 169.835 204.898 161.391V26.558C204.898 18.9311 207.619 12.6661 213.061 7.76312C218.775 2.58771 225.442 0 233.061 0C249.388 1.36195 258.367 10.2146 260 26.558V156.897V174.057C259.184 188.766 253.878 201.432 244.082 212.056C234.558 222.679 223.537 231.259 211.02 237.796C198.503 244.061 185.306 248.828 171.429 252.097C157.823 255.366 143.946 257 129.796 257Z" fill="#333333"/>
</svg>
